<?xml version="1.0" encoding="UTF-8"?>
<svg xmlns="http://www.w3.org/2000/svg" id="Logo__x5B_QFS_x5D_" version="1.1" viewBox="0 0 980.6 1280">
  <defs>
    <style>
      .st0 {
        fill: #002efc;
      }

      .st1, .st2 {
        fill: #002efb;
      }

      .st3, .st4 {
        fill: #e80b00;
      }

      .st5 {
        fill: #e70800;
      }

      .st6 {
        fill: #545454;
        stroke: #545454;
      }

      .st6, .st4, .st2 {
        stroke-miterlimit: 10;
      }

      .st4 {
        stroke: #e80b00;
        stroke-width: 2px;
      }

      .st2 {
        stroke: #002efb;
      }
    </style>
  </defs>
  <g id="Shield_1">
    <path class="st5" d="M901.8,319c-9.4,3.3-13.6,4.6-17.6,6.2-65.9,25.4-128,57.9-185.5,98.9-110.6,79-194.4,180.5-253.5,302.7-41.5,85.8-68.8,175.9-81.4,270.4-1.5,11.4.4,19.9,9.4,28.2,32.6,29.9,68.9,53.8,109.7,70.7,4.6,1.9,11.5,2,16.1,0,72.9-32.7,138.1-77,194-134.2,87.5-89.4,142.3-197,175-316.7,22.3-81.9,32.5-165.4,33.8-250.1.4-24.1,0-48.3,0-76ZM680,891.9c-2.7,3-6.9,6-10.8,6.5-36,3.9-71.4,1.6-105.7-11.2-1.6-.6-2.9-1.8-6.3-3.9,7-11,12.7-21.5,20-30.8,2-2.6,8.8-2.8,13.1-2.1,13.1,1.9,26,4.8,39,7.3.5-1.5,1-3.1,1.5-4.6-2.9-2.2-5.6-4.7-8.7-6.7-23.9-15-48.1-29.7-71.8-45.1-10.1-6.5-18.9-6.1-25.4,3.4-8.4,12.3-16.1,25.2-22.3,38.6-4.3,9.4-.2,17.8,9.1,23.5,22.6,13.8,45,27.9,67.4,42.1,7.8,4.9,15.2,6.6,23.3.9,2-1.4,4.9-2.4,7.3-2.2,17.5,1.5,34.9,3.3,52.6,5-22.8,42.5-44.3,68.5-93.2,38-31.9-19.9-63.7-39.8-95.4-59.9-26.5-16.8-32.9-39.2-18.8-66.7,9.8-19.3,19.9-38.4,30.5-57.3,13.8-24.8,35.6-31.7,59.8-17.1,42,25.2,83.6,51.2,124.7,78,25.8,16.9,29.1,42.2,10.1,64.1ZM738.2,794c-13.4,27.2-13.3,27.6-39,11.7-43.5-26.9-87-54-130.1-81.6-7.5-4.8-14.2-12.1-19.1-19.6-8.2-12.5-8.4-25.3,2.3-37.7,14.5-16.6,27.7-34.4,42.6-50.6,4-4.4,12-7.4,18-7.1,13.4.5,26.7,3.4,43.1,5.8-8.4,11.4-14.8,20.1-21.2,28.8-8.1,11-16.4,21.9-24.4,33-10.5,14.4-9.6,18.5,5.9,28.1,2.6,1.6,5.3,3,9.5,5.3,16.6-24.4,33-48.6,49.9-73.5,11.8,7.4,21.7,13.9,32,19.9,6.8,3.9,6.3,8.1,2.7,14.1-11.1,18.5-21.1,37.8-33,55.9-6.8,10.3-4,14.9,5.4,20.4,17.2,9.9,33.6,21.2,50.7,31.3,7.3,4.3,8.3,8.3,4.6,15.9ZM826.5,557.5c-5.9,24.4-14.4,48.2-20.7,72.5-3.3,12.6-10.2,17.8-22.6,16.9-8.2-.6-16.3-1.5-27-2.6,12.2-27.6,23.1-52.2,33.9-76.8,2.1-4.8,5-9.8,5.3-14.8.2-4.1-2.8-8.4-4.4-12.5-3.9,2.1-9.5,3.3-11.5,6.6-9.1,15.1-17.1,30.9-25.5,46.4-12.2,22.5-30.8,27.9-53,15-11.1-6.4-22.1-13-32.5-20.4-17.4-12.3-18.9-30.4-3.7-44.9,17.6-16.8,36.3-32.3,53.3-49.7,14.5-14.7,31.7-14.5,52.3-14-3.5,4.6-5.6,7.7-8,10.5-16.8,19.3-33.7,38.6-50.5,57.9-5.1,5.8-8.8,12.1-.6,17.9,7.4,5.2,13.3,1.4,18-4.9,9.9-13.5,19.6-27.2,29.6-40.7,3.4-4.6,6.8-9.4,10.9-13.2,19.6-18.1,51.6-9,57.4,17.2,2.4,10.7,2,23-.5,33.8Z"></path>
    <path class="st1" d="M167.8,388.4c8.3-1.6,15.1-2.9,21.9-4.1,108.8-18.1,180.9,76,183.1,148.1.6,18.2-5.7,37.7-12.9,54.9-33.2,79.1-80.3,149.1-142,209-5.4,5.2-11.4,9.8-17.3,14.4-2.4,1.9-5.1,3.4-9.5,6.3-89.4-158-120-327.4-107.9-507.4,78.9-2.4,153.3-18.8,224.2-50.9,70.7-32,131.4-77.4,182.3-137.3,107.5,113.9,234.6,185.3,396.2,188.2-20.4,6.6-39.2,12.3-57.7,18.9-56,20-109.1,46-159.1,78.1-7.6,4.9-12.3,4.7-19.6-.7-10.2-7.5-21.9-12.9-34-19.9,4.3-1.1,8.1-2.1,14.2-3.7-39.7-32.9-83.8-49.7-133-59.1,13.2-3.3,26.5-6.6,42.4-10.6-5.4-3.4-9.3-6.4-13.7-8.5-86.7-41-170.8-36.4-252.6,13.9-6.7,4.1-15.2,6.9-23.1,7.4-37.9,2.1-74,28.5-82,62.9Z"></path>
    <path class="st1" d="M464.1,596.3c-2-33.9-3.8-63.5-5.5-93.1,11.6,22.6,18,46.7,18.6,71.8.1,6-7.2,12.2-13,21.3Z"></path>
    <path class="st1" d="M547.6,499.6c-5.9-12.2-11.8-24.5-17.7-36.7.9-.5,1.9-1,2.8-1.5,6.8,11.8,13.6,23.7,20.4,35.5-1.9.9-3.7,1.8-5.6,2.7Z"></path>
    <path class="st1" d="M294.6,335.4c7.9-1,15.2-1.8,24.1-2.9-12.7,15.3-15.8,15.7-24.1,2.9Z"></path>
  </g>
  <g id="Shield_2">
    <path class="st3" d="M490.4,63.9c-4.5,5.4-11.5,12.5-17.1,19.2-108.5,129.6-249,188.7-416.2,188.5-11.1,0-14.6,3-15.4,13.6-7.8,113.1-2.7,225.1,25.7,335.5,34.8,135.4,95.5,257.1,190.7,360.6,64,69.6,141.9,120.4,223.7,165.7,3.5,1.9,9.3,2,9.3,2v43.1s-2.9,0-5.3-1.4c-63.2-34.6-126.1-69.8-182.5-115.1-100.4-80.5-172.4-182.6-223.5-299.8C18.4,635-5.8,487.1,1.1,333.9c1.3-29.6,4.2-59,5.3-88.6.4-11.3,4.7-14,15.2-13.4,44.2,2.4,88.2,2.7,132.1-5.5,127.8-23.9,230.8-87.5,309-191.4C471.4,23.5,480.2,12.3,490.4,0v63.9Z"></path>
    <path class="st0" d="M490.2,63.9c4.5,5.4,11.5,12.5,17.1,19.2,108.5,129.6,249,188.7,416.2,188.5,11.1,0,14.6,3,15.4,13.6,7.8,113.1,2.7,225.1-25.7,335.5-34.8,135.4-95.5,257.1-190.7,360.6-64,69.6-141.9,120.4-223.7,165.7-3.5,1.9-7.6,2-7.6,2,0,14.1,0,29,0,43.1,0,0,1.2,0,3.6-1.4,63.2-34.6,126.1-69.8,182.5-115.1,100.4-80.5,172.4-182.6,223.5-299.8,61.5-141,85.6-288.8,78.7-442.1-1.3-29.6-4.2-59-5.3-88.6-.4-11.3-4.7-14-15.2-13.4-44.2,2.4-88.2,2.7-132.1-5.5-127.8-23.9-230.8-87.5-309-191.4C509.2,23.5,500.4,12.3,490.2,0v63.9Z"></path>
  </g>
  <g>
    <path class="st2" d="M45.6,925.3l-7.1-.5.5-5.9c-4.4-1.1-8.8-5.5-13.3-13.2-4.9-8.4-6.8-14.6-5.6-18.5,1.1-3.9,6.2-8.4,15.1-13.6,10.4-6,17.7-8.7,21.8-8.1,4.1.7,8.6,5.3,13.6,13.9,4.9,8.5,6.7,14.6,5.5,18.5-1.2,3.8-6.6,8.5-15.9,13.9-6.7,3.9-11.4,6.2-14.1,7l-.5,6.5ZM40.9,894.5l7.1.6-.9,12.7c1.7-.8,2.8-1.3,3.4-1.6l4.5-2.6,5.5-3.2c4.1-2.4,6.4-4.6,6.7-6.6.4-2-.8-5.4-3.5-10.1-3.3-5.6-5.9-8.5-7.9-8.6-2-.1-7.3,2.3-15.8,7.3-6.5,3.8-10,6.6-10.5,8.4-.6,1.9.9,5.8,4.4,11.9,1.8,3.1,3.8,5.1,6.2,6.1l1-14.3Z"></path>
    <path class="st4" d="M87.4,923.4l-11.6,7.5,12.4,19.2-6.8,4.4-12.4-19.2-17.6,11.4-5.3-8.1,42.9-27.7,18.4,28.4-6.8,4.4-13.1-20.3Z"></path>
    <path class="st4" d="M123.6,988.4l-5.5-7.7c.4-.3.6-.5.8-.7,2.2-1.8,3.3-3.4,3.3-4.7,0-1.3-1.1-3.5-3.4-6.7-2.7-3.7-4.7-5.9-6.2-6.6-1.5-.7-3.4-.2-5.6,1.4-2.6,1.9-3.9,3.4-3.7,4.8.1,1.3,1.9,4.7,5.4,10.1,4.1,6.5,6,11.1,5.9,13.9-.1,2.8-2.5,5.8-6.9,9-5.5,3.9-9.9,5.4-13,4.4s-7.3-5.1-12.4-12.4c-4.6-6.6-6.9-11.5-6.9-14.7,0-3.3,2.5-6.6,7.4-10.1l1.5-1.1,5.4,7.7-.9.7c-2.9,2.1-4.3,3.8-4.3,5.3,0,1.5,1.7,4.5,4.9,9,2.5,3.5,4.5,5.5,5.9,6,1.4.4,3.5-.3,6.3-2.2,2-1.4,3.1-2.7,3.2-4,.1-1.2-.6-3.1-2.2-5.7l-2.8-4.6c-4.3-6.9-6.4-11.7-6.2-14.6.1-2.9,2.6-6,7.4-9.3,4.9-3.4,8.9-4.6,12.1-3.6,3.2,1.1,7.1,4.9,11.8,11.5,4.4,6.3,6.7,11,6.7,14.2,0,3.2-2.1,6.4-6.4,9.4l-1.6,1.1Z"></path>
    <path class="st6" d="M197.3,1056.3l-39.1,32.8-6.2-7.4,21.3-17.9c1.7-1.4,3.7-3,5.9-4.7l3-2.3,3-2.3-.2-.2-3.5,1.4-3.4,1.4c-3.1,1.3-5.4,2.1-7,2.7l-29.3,9.9-5.7-6.8,14.6-27.1c.8-1.5,2.1-3.6,3.8-6.4l2-3.2,1.9-3.1-.2-.2-2.7,2.5-2.7,2.5c-2.1,2-4,3.6-5.6,5l-21.3,17.9-6.2-7.4,39.1-32.8,10.2,12.1-12.2,22.2c-.9,1.5-2.1,3.7-3.8,6.4l-2,3.1-1.9,3.1.2.3,3.4-1.4,3.4-1.4c2.9-1.2,5.2-2.1,6.9-2.7l23.9-8.4,10.4,12.3Z"></path>
    <path class="st6" d="M198.8,1117.4l-15.3-15.8-9.3,4.5-7.1-7.4,48.5-23.3,10.1,10.5-24.7,47.9-7-7.2,4.8-9.2ZM202.4,1110.9l13-24.9-25.1,12.3,12.2,12.6Z"></path>
    <path class="st6" d="M280,1136.2l-33.8,38.3-12.3-10.9,7.6-30.7c.4-1.5,1.1-4.1,2.3-7.8l1.2-3.8,1.2-3.8-.3-.2-2.1,2.6-2.1,2.6-4.4,5.1-19.4,22-7.3-6.4,33.8-38.3,12.3,10.9-7.2,28.2c-.6,2.5-1.5,5.5-2.5,9l-1.3,4.4-1.3,4.4.3.2,2.1-2.5,2.1-2.5,4.3-5,19.5-22,7.3,6.4Z"></path>
    <path class="st6" d="M291.4,1196.2l-17.8-13-8.3,6.1-8.3-6,43.8-31.3,11.8,8.6-16.1,51.5-8.1-5.9,3.1-9.8ZM293.8,1189.1l8.5-26.7-22.7,16.4,14.2,10.3Z"></path>
    <path class="st6" d="M339.6,1206l19.6,11.1-4.9,8.9c-3.6,6.4-7.2,9.9-10.7,10.4-3.5.5-9.4-1.7-17.8-6.4-7.7-4.4-12.1-8.5-13.2-12.4-1.1-3.9.5-9.6,4.8-17.3,5.5-9.7,9.5-15.6,12-17.6,3-2.4,6.1-3.5,9.2-3.1s7.7,2.2,13.7,5.7c7.9,4.5,12.5,8.2,13.9,11.2,1.3,3,.4,7.4-2.9,13.1l-8.5-4.8c1.5-3,1.9-5.2,1.2-6.5s-3.3-3.3-7.8-5.8c-4.9-2.8-8.3-3.9-10.3-3.5-2,.5-4.3,2.9-6.8,7.4l-2.6,4.4-3.2,5.7c-2.5,4.4-3.4,7.6-2.8,9.5.6,1.9,3.3,4.3,8,6.9,4.6,2.6,7.8,3.8,9.6,3.4,1.8-.3,3.8-2.4,6-6.2l1.1-1.8-11.2-6.3,3.5-6.2Z"></path>
    <path class="st6" d="M386,1211.7l-5,12.2,22.2,9-2.7,6.6-22.2-9-5.4,13.4,23.6,9.6-3.1,7.6-32.6-13.3,19.2-47.3,32.4,13.2-3.1,7.6-23.4-9.5Z"></path>
    <path class="st6" d="M480.6,1229.7l-10,50.1-9.5-1.9,5.4-27.3c.4-2.2,1-4.6,1.7-7.4l.9-3.7.9-3.7h-.3c0,0-1.8,3.2-1.8,3.2l-1.8,3.3c-1.7,2.9-2.9,5.1-3.8,6.5l-16.6,26.1-8.7-1.7-5.5-30.2c-.3-1.7-.7-4.1-1-7.4l-.4-3.7-.5-3.7h-.3c0,0-.5,3.6-.5,3.6l-.5,3.7c-.4,2.9-.8,5.3-1.2,7.3l-5.4,27.3-9.5-1.9,10-50.1,15.5,3.1,4.3,25c.3,1.7.6,4.2,1,7.4l.4,3.7.5,3.7h.3c0,0,1.8-3.2,1.8-3.2l1.8-3.2c1.5-2.7,2.7-4.9,3.7-6.4l13.4-21.5,15.8,3.1Z"></path>
    <path class="st6" d="M501.1,1237.2l.3,13.2,23.9-.6.2,7.1-23.9.6.4,14.4,25.5-.6.2,8.2-35.2.9-1.3-51.1,34.9-.9.2,8.2-25.2.6Z"></path>
    <path class="st6" d="M582.5,1216.9l11.6,49.7-16,3.7-20.6-24c-1-1.2-2.7-3.3-5-6.4l-2.4-3.2-2.4-3.2h-.4c0,0,.9,3.3.9,3.3l.9,3.2,1.6,6.5,6.6,28.5-9.4,2.2-11.6-49.7,16-3.7,18.8,22.2c1.7,2,3.6,4.4,5.9,7.2l2.8,3.6,2.8,3.6h.3c0,0-.9-3.3-.9-3.3l-.9-3.2-1.6-6.4-6.7-28.6,9.4-2.2Z"></path>
    <path class="st6" d="M615.9,1212.2l16.9,38.9-8.9,3.9-16.9-38.9-13.5,5.9-3.5-8,36.4-15.8,3.5,8-14,6.1Z"></path>
    <path class="st6" d="M674.4,1187l-8.1,4.9c-.3-.4-.5-.7-.6-.9-1.7-2.3-3.2-3.5-4.4-3.6-1.3,0-3.6.9-6.9,2.9-3.9,2.4-6.3,4.3-7,5.8-.8,1.5-.4,3.3,1,5.7,1.7,2.8,3.2,4.1,4.5,4.1,1.3,0,4.8-1.6,10.5-4.6,6.7-3.6,11.5-5.2,14.3-4.9,2.8.3,5.7,2.9,8.5,7.6,3.5,5.8,4.7,10.2,3.5,13.3-1.2,3.1-5.6,6.9-13.3,11.5-6.9,4.2-11.9,6.1-15.2,5.8-3.3-.3-6.4-3-9.5-8.1l-1-1.6,8.1-4.9.6.9c1.9,3,3.5,4.6,5,4.6s4.6-1.4,9.4-4.3c3.7-2.3,5.8-4.1,6.4-5.5.5-1.4,0-3.5-1.8-6.4-1.3-2.1-2.5-3.3-3.7-3.5-1.2-.2-3.1.4-5.8,1.8l-4.7,2.5c-7.2,3.8-12.1,5.5-15,5.2s-5.8-3-8.8-8c-3.1-5.1-4-9.2-2.7-12.3,1.3-3.1,5.4-6.8,12.3-11,6.6-4,11.5-5.9,14.7-5.7,3.2.2,6.2,2.5,9,7l1,1.7Z"></path>
    <path class="st6" d="M734.7,1138.7l-7.2,6.2c-.3-.3-.6-.6-.7-.7-2-2-3.7-3-5-2.9-1.3.1-3.4,1.5-6.3,4-3.5,3-5.5,5.3-6,6.8-.5,1.6.1,3.4,1.9,5.4,2.1,2.4,3.8,3.5,5.1,3.3,1.3-.3,4.5-2.4,9.6-6.3,6-4.6,10.5-7,13.3-7.2,2.8-.1,6,1.9,9.6,6.1,4.4,5.1,6.3,9.3,5.6,12.5-.7,3.2-4.4,7.7-11.2,13.6-6.1,5.2-10.8,8-14,8.2-3.3.2-6.8-1.9-10.7-6.4l-1.2-1.4,7.1-6.1.7.8c2.3,2.7,4.2,4,5.7,3.7,1.5-.2,4.3-2.1,8.5-5.8,3.3-2.8,5.1-5,5.4-6.5.3-1.5-.6-3.5-2.8-6-1.6-1.9-3-2.8-4.2-2.8-1.2,0-3,.9-5.4,2.7l-4.3,3.2c-6.4,4.9-11.1,7.4-13.9,7.5-2.9.1-6.2-2-10-6.5-3.9-4.5-5.5-8.4-4.7-11.7.8-3.3,4.2-7.5,10.4-12.8,5.8-5,10.3-7.7,13.5-8.1,3.2-.4,6.5,1.5,10,5.5l1.3,1.5Z"></path>
    <path class="st6" d="M764,1088.4l9.3,35.6,13.9,13.6-6.8,6.9-13.9-13.6-35.4-9,7.9-8,15,3.9c.8.2,2.3.7,4.5,1.4l2.2.7,2.2.7.2-.2-.7-2.2-.7-2.2c-.7-2-1.1-3.4-1.4-4.5l-4.2-15,8-8.1Z"></path>
    <path class="st6" d="M806.1,1062.1l-6.1,7.2c-.4-.3-.7-.5-.8-.6-2.3-1.7-4.1-2.4-5.3-2.1-1.2.3-3.1,2-5.6,4.9-3,3.5-4.6,6-4.9,7.7-.3,1.6.6,3.3,2.7,5.1,2.4,2.1,4.3,2.9,5.5,2.5,1.2-.5,4.1-3,8.5-7.7,5.3-5.5,9.3-8.5,12.1-9.1,2.8-.6,6.3.9,10.5,4.5,5.2,4.4,7.6,8.2,7.4,11.5-.2,3.3-3.2,8.3-9,15.1-5.2,6.1-9.4,9.5-12.6,10.3-3.2.7-7-.8-11.6-4.7l-1.4-1.2,6.1-7.2.8.7c2.7,2.3,4.8,3.3,6.2,2.8,1.4-.4,3.9-2.8,7.5-7,2.8-3.3,4.3-5.7,4.3-7.2,0-1.5-1.2-3.3-3.7-5.5-1.9-1.6-3.4-2.3-4.6-2.2-1.2.2-2.9,1.3-5,3.5l-3.7,3.8c-5.6,5.8-9.8,9-12.6,9.6-2.8.6-6.4-1.1-10.9-4.8-4.5-3.9-6.7-7.5-6.4-10.8.2-3.3,3-8.1,8.3-14.3,5-5.8,9-9.2,12.2-10,3.1-.8,6.7.4,10.7,3.9l1.5,1.3Z"></path>
    <path class="st6" d="M822.3,1031l33.7,25.8-5.9,7.7-33.7-25.8-9,11.7-6.9-5.3,24.1-31.5,6.9,5.3-9.3,12.1Z"></path>
    <path class="st6" d="M842.5,1002.6l10.8,7.5,13.7-19.6,5.9,4.1-13.7,19.6,11.8,8.3,14.6-20.9,6.7,4.7-20.1,28.8-41.9-29.2,20-28.6,6.7,4.7-14.5,20.7Z"></path>
    <path class="st6" d="M888.7,917.3l43.2,27.3-5.2,8.2-23.5-14.9c-1.9-1.2-4-2.6-6.3-4.2l-3.1-2.2-3.1-2.2-.2.3,2.4,2.9,2.4,2.8c2.1,2.6,3.7,4.5,4.7,5.8l18.4,24.9-4.7,7.5-30.2-5.7c-1.7-.3-4.1-.9-7.3-1.7l-3.6-.9-3.6-.9-.2.3,3.2,1.8,3.3,1.8c2.5,1.4,4.7,2.7,6.4,3.8l23.5,14.9-5.2,8.2-43.2-27.3,8.4-13.4,24.9,4.9c1.7.4,4.2.9,7.3,1.7l3.6.9,3.6.9.2-.3-2.4-2.8-2.4-2.8c-2-2.4-3.6-4.3-4.7-5.8l-15.3-20.3,8.6-13.6Z"></path>
    <path class="st6" d="M927,880.7l-4.7,8.2c-.4-.2-.8-.3-.9-.5-2.6-1.2-4.5-1.6-5.6-1-1.2.5-2.7,2.5-4.7,5.9-2.3,4-3.4,6.8-3.4,8.4,0,1.6,1.2,3.1,3.6,4.5,2.8,1.6,4.7,2.1,5.9,1.4,1.1-.7,3.5-3.7,7-9.1,4.2-6.4,7.6-10.1,10.2-11.2,2.6-1.1,6.3-.2,11.1,2.5,5.9,3.4,9,6.7,9.4,10s-1.6,8.8-6.1,16.5c-4,7-7.5,11.1-10.5,12.4-3,1.3-7.1.5-12.2-2.5l-1.6-.9,4.7-8.2,1,.5c3.1,1.8,5.3,2.3,6.6,1.6,1.3-.7,3.4-3.4,6.1-8.3,2.2-3.8,3.1-6.4,2.9-7.9s-1.8-3.1-4.6-4.8c-2.1-1.2-3.8-1.7-4.9-1.3-1.2.4-2.6,1.8-4.2,4.4l-3,4.5c-4.4,6.8-8,10.7-10.6,11.7-2.7,1.1-6.5.1-11.6-2.8-5.2-3-7.9-6.1-8.3-9.5-.4-3.3,1.5-8.5,5.5-15.5,3.8-6.7,7.2-10.7,10.1-12.1,2.9-1.4,6.7-.8,11.2,1.9l1.7,1Z"></path>
  </g>
</svg>
